<svg width="800px" height="440px" viewBox="0 11 24 2" xmlns="http://www.w3.org/2000/svg">
  <mask id="mask">
    <path d="M20,15.67V14h2V10H20V8.33A1.34,1.34,0,0,0,18.67,7H3.34A1.34,1.34,0,0,0,2,8.33v7.33A1.34,1.34,0,0,0,3.33,17H18.67A1.34,1.34,0,0,0,20,15.67Z" fill="white"/>
  </mask>
  <path d="M20,15.67V14h2V10H20V8.33A1.34,1.34,0,0,0,18.67,7H3.34A1.34,1.34,0,0,0,2,8.33v7.33A1.34,1.34,0,0,0,3.33,17H18.67A1.34,1.34,0,0,0,20,15.67Z" fill="#190B28" stroke="#E55381" stroke-width="1"/>
  <rect x="2" y="7" width="4" height="10" fill="#E55381" mask="url(#mask)"/>
</svg>
